<svg viewBox = "0 0 960 599.999999" width="960" height="599.999999" xmlns="http://www.w3.org/2000/svg"><g transform="matrix(1 0 0 1 480 300)"  ><g style=""   ><g transform="matrix(1 0 0 1 -304.79 -141.8)" clip-path="url(#CLIPPATH_2135)"  ><clipPath id="CLIPPATH_2135" ><path transform="matrix(1 0 0 1 0 0) translate(-175.21, -158.2)" id="8" clip-path="url(#undefined)" d="M 175.207031 42.992188 C 111.578125 42.992188 60 94.570312 60 158.199219 C 60 221.824219 111.578125 273.40625 175.207031 273.40625 C 238.835938 273.40625 290.414062 221.824219 290.414062 158.199219 C 290.414062 94.570312 238.835938 42.992188 175.207031 42.992188 Z M 175.207031 42.992188" stroke-linecap="round" /></clipPath><path style="stroke: none; stroke-width: 1; stroke-dasharray: none; stroke-linecap: butt; stroke-dashoffset: 0; stroke-linejoin: miter; stroke-miterlimit: 4; fill: rgb(11,184,39); fill-rule: nonzero; opacity: 1;"  transform=" translate(-175.21, -158.2)" d="M 60 42.992188 L 290.414062 42.992188 L 290.414062 273.40625 L 60 273.40625 Z M 60 42.992188" stroke-linecap="round" /></g><g transform="matrix(1 0 0 1 -221.2 -133.29)" clip-path="url(#CLIPPATH_2136)"  ><clipPath id="CLIPPATH_2136" ><path transform="matrix(1 0 0 1 0 0) translate(-258.8, -166.7)" id="dd343e9d3e" clip-path="url(#undefined)" d="M 261.222656 165.414062 C 260.511719 164.078125 258.847656 163.570312 257.511719 164.28125 C 256.175781 164.996094 255.667969 166.65625 256.378906 167.996094 C 257.09375 169.332031 258.753906 169.839844 260.09375 169.125 C 261.429688 168.414062 261.9375 166.75 261.222656 165.414062 Z M 261.222656 165.414062" stroke-linecap="round" /></clipPath><path style="stroke: none; stroke-width: 1; stroke-dasharray: none; stroke-linecap: butt; stroke-dashoffset: 0; stroke-linejoin: miter; stroke-miterlimit: 4; fill: rgb(255,255,255); fill-rule: nonzero; opacity: 1;"  transform=" translate(-258.8, -166.71)" d="M 259.933594 162.992188 L 262.515625 167.835938 L 257.671875 170.417969 L 255.089844 165.574219 Z M 259.933594 162.992188" stroke-linecap="round" /></g><g transform="matrix(1 0 0 1 -221.2 -133.29)" clip-path="url(#CLIPPATH_2137)"  ><clipPath id="CLIPPATH_2137" ><path transform="matrix(1 0 0 1 0 0) translate(-4.8, -4.7)" id="8" clip-path="url(#undefined)" d="M 7.222656 3.414062 C 6.511719 2.078125 4.847656 1.570312 3.511719 2.28125 C 2.175781 2.996094 1.667969 4.65625 2.378906 5.996094 C 3.09375 7.332031 4.753906 7.839844 6.09375 7.125 C 7.429688 6.414062 7.9375 4.75 7.222656 3.414062 Z M 7.222656 3.414062" stroke-linecap="round" /></clipPath><path style="stroke: none; stroke-width: 1; stroke-dasharray: none; stroke-linecap: butt; stroke-dashoffset: 0; stroke-linejoin: miter; stroke-miterlimit: 4; fill: rgb(6,157,252); fill-rule: nonzero; opacity: 1;"  transform=" translate(-4.8, -4.71)" d="M 5.933594 0.992188 L 8.515625 5.835938 L 3.671875 8.417969 L 1.089844 3.574219 Z M 5.933594 0.992188" stroke-linecap="round" /></g><g transform="matrix(1 0 0 1 281.82 154.08)" clip-path="url(#CLIPPATH_2138)"  ><clipPath id="CLIPPATH_2138" ><path transform="matrix(1 0 0 1 0 0) translate(-761.82, -454.08)" id="6" clip-path="url(#undefined)" d="M 761.816406 332.058594 C 694.425781 332.058594 639.796875 386.691406 639.796875 454.082031 C 639.796875 521.46875 694.425781 576.101562 761.816406 576.101562 C 829.207031 576.101562 883.835938 521.46875 883.835938 454.082031 C 883.835938 386.691406 829.207031 332.058594 761.816406 332.058594 Z M 761.816406 332.058594" stroke-linecap="round" /></clipPath><path style="stroke: none; stroke-width: 1; stroke-dasharray: none; stroke-linecap: butt; stroke-dashoffset: 0; stroke-linejoin: miter; stroke-miterlimit: 4; fill: rgb(11,184,39); fill-rule: nonzero; opacity: 1;"  transform=" translate(-761.82, -454.08)" d="M 639.796875 332.058594 L 883.835938 332.058594 L 883.835938 576.101562 L 639.796875 576.101562 Z M 639.796875 332.058594" stroke-linecap="round" /></g><g transform="matrix(1 0 0 1 281.81 141.2)" clip-path="url(#CLIPPATH_2139)"  ><clipPath id="CLIPPATH_2139" ><path transform="matrix(1 0 0 1 0.04 -0.13) translate(-761.85, -441.07)" d="M 684.703125 354.070312 L 839 354.070312 L 839 528.070312 L 684.703125 528.070312 Z M 684.703125 354.070312" stroke-linecap="round" /></clipPath><path style="stroke: none; stroke-width: 1; stroke-dasharray: none; stroke-linecap: butt; stroke-dashoffset: 0; stroke-linejoin: miter; stroke-miterlimit: 4; fill: rgb(255,255,255); fill-rule: nonzero; opacity: 1;"  transform=" translate(-761.81, -441.2)" d="M 838.929688 464.488281 C 838.929688 458.167969 834.777344 452.796875 829.058594 450.960938 C 831.292969 448.449219 832.652344 445.144531 832.652344 441.527344 C 832.652344 433.695312 826.28125 427.324219 818.449219 427.324219 L 780.03125 427.324219 C 781.875 423.851562 783.535156 419.390625 784.675781 414.675781 C 786.742188 406.144531 786.796875 398.046875 784.832031 391.871094 C 782.507812 384.570312 777.390625 379.757812 770.035156 377.957031 C 769.324219 377.78125 768.578125 377.898438 767.957031 378.28125 C 767.335938 378.664062 766.894531 379.277344 766.730469 379.988281 C 766.3125 381.816406 765.921875 383.535156 765.554688 385.144531 C 761.007812 405.175781 760.308594 408.257812 747.332031 416.734375 C 738.390625 422.578125 737.949219 423.222656 732.550781 431.097656 C 731.984375 431.925781 731.359375 432.835938 730.660156 433.847656 C 728.230469 437.363281 724.996094 439.019531 720.492188 439.058594 L 719.089844 439.0625 L 719.089844 437.070312 C 719.089844 432.933594 715.722656 429.566406 711.582031 429.566406 L 692.203125 429.566406 C 688.0625 429.566406 684.695312 432.933594 684.695312 437.070312 L 684.695312 520.8125 C 684.695312 524.949219 688.0625 528.316406 692.203125 528.316406 L 711.585938 528.316406 C 715.722656 528.316406 719.089844 524.949219 719.089844 520.8125 L 719.089844 515.40625 C 721.296875 516.144531 723.476562 516.953125 725.734375 517.800781 C 734.703125 521.148438 743.972656 524.609375 758.308594 524.609375 L 808.761719 524.609375 C 816.59375 524.609375 822.964844 518.238281 822.964844 510.410156 C 822.964844 507.105469 821.832031 504.066406 819.9375 501.652344 L 820.78125 501.652344 C 828.613281 501.652344 834.984375 495.28125 834.984375 487.449219 C 834.984375 483.5 833.363281 479.925781 830.753906 477.347656 C 835.582031 475.074219 838.929688 470.164062 838.929688 464.488281 Z M 713.644531 520.8125 C 713.644531 521.949219 712.722656 522.875 711.582031 522.875 L 692.203125 522.875 C 691.066406 522.875 690.140625 521.949219 690.140625 520.8125 L 690.140625 437.070312 C 690.140625 435.933594 691.066406 435.007812 692.203125 435.007812 L 711.585938 435.007812 C 712.722656 435.007812 713.644531 435.933594 713.644531 437.070312 Z M 820.78125 496.207031 L 788.492188 496.207031 C 786.988281 496.207031 785.769531 497.425781 785.769531 498.929688 C 785.769531 500.433594 786.988281 501.652344 788.492188 501.652344 L 808.761719 501.652344 C 813.589844 501.652344 817.519531 505.578125 817.519531 510.410156 C 817.519531 515.238281 813.589844 519.167969 808.761719 519.167969 L 758.308594 519.167969 C 744.957031 519.167969 736.152344 515.878906 727.640625 512.699219 C 724.875 511.664062 722.03125 510.605469 719.089844 509.6875 L 719.089844 444.507812 L 720.527344 444.503906 C 726.792969 444.449219 731.710938 441.90625 735.140625 436.945312 C 735.84375 435.925781 736.472656 435.007812 737.042969 434.175781 C 742.175781 426.691406 742.273438 426.546875 750.3125 421.292969 C 765.128906 411.609375 766.230469 406.761719 770.863281 386.351562 C 771.03125 385.621094 771.199219 384.875 771.375 384.101562 C 775.457031 385.800781 778.175781 388.90625 779.644531 393.523438 C 783.339844 405.125 777.503906 422.996094 772.941406 428.265625 C 772.242188 429.070312 772.078125 430.210938 772.523438 431.179688 C 772.964844 432.148438 773.933594 432.769531 774.996094 432.769531 L 818.449219 432.769531 C 823.277344 432.769531 827.207031 436.699219 827.207031 441.527344 C 827.207031 446.355469 823.277344 450.285156 818.449219 450.285156 L 788.492188 450.285156 C 786.988281 450.285156 785.769531 451.503906 785.769531 453.007812 C 785.769531 454.511719 786.988281 455.730469 788.492188 455.730469 L 824.726562 455.730469 C 829.554688 455.730469 833.484375 459.660156 833.484375 464.488281 C 833.484375 469.316406 829.554688 473.246094 824.726562 473.246094 L 788.492188 473.246094 C 786.988281 473.246094 785.769531 474.464844 785.769531 475.96875 C 785.769531 477.472656 786.988281 478.691406 788.492188 478.691406 L 820.78125 478.691406 C 825.609375 478.691406 829.539062 482.617188 829.539062 487.449219 C 829.539062 492.277344 825.609375 496.207031 820.78125 496.207031 Z M 769.492188 366.0625 L 769.492188 356.8125 C 769.492188 355.308594 770.710938 354.089844 772.214844 354.089844 C 773.71875 354.089844 774.9375 355.308594 774.9375 356.8125 L 774.9375 366.0625 C 774.9375 367.566406 773.71875 368.785156 772.214844 368.785156 C 770.710938 368.785156 769.492188 367.566406 769.492188 366.0625 Z M 787.109375 376.976562 C 786.046875 375.914062 786.046875 374.191406 787.109375 373.128906 L 793.652344 366.585938 C 794.714844 365.523438 796.4375 365.523438 797.503906 366.585938 C 798.566406 367.648438 798.566406 369.371094 797.503906 370.4375 L 790.960938 376.976562 C 790.429688 377.507812 789.734375 377.773438 789.035156 377.773438 C 788.339844 377.773438 787.640625 377.507812 787.109375 376.976562 Z M 746.925781 370.4375 C 745.863281 369.371094 745.863281 367.648438 746.925781 366.585938 C 747.992188 365.523438 749.714844 365.523438 750.777344 366.585938 L 757.320312 373.128906 C 758.382812 374.191406 758.382812 375.914062 757.320312 376.976562 C 756.789062 377.507812 756.089844 377.773438 755.394531 377.773438 C 754.699219 377.773438 754 377.507812 753.46875 376.976562 Z M 746.925781 370.4375" stroke-linecap="round" /></g><g transform="matrix(1 0 0 1 -23.96 151.98)"  ><path style="stroke: none; stroke-width: 1; stroke-dasharray: none; stroke-linecap: butt; stroke-dashoffset: 0; stroke-linejoin: miter; stroke-miterlimit: 4; fill: rgb(11,184,39); fill-rule: nonzero; opacity: 1;"  transform=" translate(-456.04, -451.98)" d="M 456.09375 329.59375 C 453.457031 329.59375 450.820312 329.675781 448.1875 329.847656 C 445.554688 330.015625 442.929688 330.269531 440.3125 330.609375 C 437.695312 330.949219 435.09375 331.371094 432.503906 331.878906 C 429.914062 332.386719 427.34375 332.980469 424.792969 333.652344 C 422.238281 334.328125 419.714844 335.082031 417.210938 335.921875 C 414.707031 336.757812 412.234375 337.675781 409.792969 338.671875 C 407.351562 339.671875 404.941406 340.746094 402.570312 341.898438 C 400.195312 343.050781 397.859375 344.28125 395.566406 345.585938 C 393.273438 346.890625 391.023438 348.265625 388.820312 349.714844 C 386.613281 351.164062 384.457031 352.683594 382.351562 354.273438 C 380.246094 355.863281 378.191406 357.519531 376.191406 359.242188 C 374.191406 360.964844 372.25 362.746094 370.367188 364.59375 C 368.484375 366.441406 366.660156 368.347656 364.898438 370.316406 C 363.140625 372.28125 361.445312 374.300781 359.8125 376.375 C 358.183594 378.449219 356.621094 380.574219 355.128906 382.753906 C 353.636719 384.929688 352.214844 387.148438 350.867188 389.417969 C 349.519531 391.6875 348.246094 393.996094 347.042969 396.347656 C 345.84375 398.695312 344.722656 401.082031 343.679688 403.507812 C 342.632812 405.929688 341.667969 408.382812 340.78125 410.867188 C 339.894531 413.355469 339.089844 415.867188 338.367188 418.402344 C 337.640625 420.941406 337 423.5 336.441406 426.078125 C 335.882812 428.65625 335.410156 431.25 335.019531 433.859375 C 334.628906 436.46875 334.320312 439.089844 334.101562 441.71875 C 333.878906 444.347656 333.742188 446.984375 333.691406 449.621094 C 333.640625 452.261719 333.675781 454.898438 333.796875 457.53125 C 333.917969 460.167969 334.121094 462.796875 334.410156 465.421875 C 334.699219 468.042969 335.074219 470.65625 335.535156 473.253906 C 335.992188 475.851562 336.535156 478.433594 337.160156 480.996094 C 337.785156 483.558594 338.492188 486.101562 339.285156 488.617188 C 340.074219 491.136719 340.945312 493.625 341.894531 496.085938 C 342.847656 498.546875 343.875 500.976562 344.984375 503.371094 C 346.09375 505.765625 347.277344 508.121094 348.539062 510.441406 C 348.761719 510.847656 349.050781 511.199219 349.414062 511.492188 C 349.777344 511.785156 350.179688 511.996094 350.625 512.128906 C 351.070312 512.257812 351.527344 512.300781 351.988281 512.25 C 352.453125 512.203125 352.886719 512.066406 353.296875 511.84375 C 353.703125 511.621094 354.054688 511.328125 354.34375 510.964844 C 354.636719 510.605469 354.847656 510.199219 354.980469 509.753906 C 355.109375 509.308594 355.152344 508.851562 355.101562 508.390625 C 355.050781 507.925781 354.914062 507.492188 354.691406 507.085938 C 353.601562 505.074219 352.566406 503.035156 351.597656 500.960938 C 350.625 498.890625 349.71875 496.792969 348.871094 494.667969 C 348.027344 492.542969 347.242188 490.394531 346.527344 488.222656 C 345.808594 486.050781 345.15625 483.859375 344.566406 481.648438 C 343.976562 479.4375 343.457031 477.210938 343 474.96875 C 342.546875 472.726562 342.15625 470.472656 341.835938 468.207031 C 341.515625 465.941406 341.261719 463.671875 341.074219 461.390625 C 340.886719 459.109375 340.769531 456.828125 340.71875 454.539062 C 340.667969 452.253906 340.6875 449.964844 340.769531 447.679688 C 340.855469 445.394531 341.011719 443.113281 341.230469 440.835938 C 341.453125 438.558594 341.742188 436.292969 342.097656 434.03125 C 342.453125 431.773438 342.875 429.523438 343.367188 427.289062 C 343.855469 425.054688 344.410156 422.835938 345.03125 420.636719 C 345.652344 418.433594 346.339844 416.253906 347.09375 414.09375 C 347.84375 411.933594 348.65625 409.796875 349.535156 407.683594 C 350.414062 405.570312 351.355469 403.488281 352.359375 401.429688 C 353.359375 399.375 354.421875 397.347656 355.546875 395.355469 C 356.667969 393.363281 357.847656 391.40625 359.089844 389.484375 C 360.328125 387.558594 361.621094 385.675781 362.972656 383.828125 C 364.324219 381.984375 365.730469 380.179688 367.1875 378.417969 C 368.648438 376.65625 370.15625 374.9375 371.71875 373.265625 C 373.277344 371.59375 374.886719 369.96875 376.546875 368.390625 C 378.203125 366.816406 379.90625 365.289062 381.652344 363.8125 C 383.402344 362.335938 385.191406 360.914062 387.023438 359.546875 C 388.855469 358.175781 390.730469 356.863281 392.640625 355.605469 C 394.550781 354.347656 396.496094 353.148438 398.480469 352.007812 C 400.460938 350.863281 402.476562 349.78125 404.523438 348.761719 C 406.570312 347.738281 408.644531 346.777344 410.746094 345.878906 C 412.851562 344.980469 414.980469 344.144531 417.132812 343.371094 C 419.285156 342.601562 421.460938 341.894531 423.65625 341.25 C 425.851562 340.609375 428.066406 340.03125 430.292969 339.519531 C 432.523438 339.007812 434.765625 338.5625 437.023438 338.1875 C 439.28125 337.808594 441.542969 337.496094 443.820312 337.253906 C 446.09375 337.011719 448.375 336.835938 450.660156 336.730469 C 452.945312 336.621094 455.230469 336.582031 457.519531 336.609375 C 459.804688 336.640625 462.089844 336.734375 464.371094 336.898438 C 466.652344 337.0625 468.929688 337.296875 471.195312 337.597656 C 473.464844 337.894531 475.71875 338.261719 477.964844 338.695312 C 480.210938 339.128906 482.445312 339.628906 484.660156 340.195312 C 486.875 340.761719 489.074219 341.394531 491.253906 342.09375 C 493.429688 342.789062 495.585938 343.550781 497.722656 344.375 C 499.855469 345.203125 501.960938 346.089844 504.042969 347.042969 C 506.121094 347.992188 508.171875 349.003906 510.195312 350.078125 C 512.214844 351.148438 514.199219 352.28125 516.152344 353.472656 C 518.105469 354.664062 520.023438 355.910156 521.902344 357.214844 C 523.78125 358.519531 525.621094 359.878906 527.417969 361.292969 C 529.214844 362.710938 530.96875 364.175781 532.679688 365.695312 C 534.390625 367.210938 536.054688 368.78125 537.671875 370.398438 C 539.292969 372.015625 540.859375 373.679688 542.378906 375.390625 C 543.898438 377.101562 545.363281 378.855469 546.777344 380.65625 C 548.191406 382.453125 549.550781 384.289062 550.855469 386.167969 C 552.160156 388.046875 553.410156 389.964844 554.601562 391.917969 C 555.789062 393.871094 556.921875 395.859375 557.996094 397.878906 C 559.066406 399.898438 560.078125 401.949219 561.03125 404.03125 C 561.980469 406.109375 562.871094 408.21875 563.695312 410.351562 C 564.519531 412.484375 565.28125 414.640625 565.980469 416.820312 C 566.675781 418.996094 567.308594 421.195312 567.875 423.410156 C 568.441406 425.628906 568.941406 427.859375 569.375 430.105469 C 569.808594 432.351562 570.175781 434.609375 570.476562 436.875 C 570.777344 439.144531 571.007812 441.417969 571.171875 443.699219 C 571.335938 445.980469 571.433594 448.265625 571.460938 450.554688 C 571.488281 452.839844 571.449219 455.128906 571.34375 457.414062 C 571.234375 459.699219 571.058594 461.976562 570.816406 464.253906 C 570.574219 466.527344 570.265625 468.792969 569.886719 471.050781 C 569.507812 473.304688 569.0625 475.546875 568.550781 477.777344 C 568.042969 480.007812 567.464844 482.21875 566.820312 484.414062 C 566.179688 486.609375 565.472656 488.785156 564.699219 490.9375 C 563.925781 493.09375 563.089844 495.21875 562.191406 497.324219 C 561.292969 499.429688 560.332031 501.503906 559.3125 503.550781 C 558.289062 505.597656 557.207031 507.609375 556.066406 509.59375 C 554.921875 511.574219 553.722656 513.519531 552.464844 515.433594 C 551.207031 517.34375 549.894531 519.214844 548.527344 521.046875 C 547.15625 522.878906 545.734375 524.671875 544.257812 526.417969 C 542.785156 528.167969 541.257812 529.871094 539.679688 531.527344 C 538.105469 533.183594 536.480469 534.792969 534.808594 536.355469 C 533.132812 537.914062 531.417969 539.425781 529.65625 540.882812 C 527.890625 542.339844 526.089844 543.746094 524.242188 545.097656 C 522.398438 546.449219 520.511719 547.746094 518.589844 548.984375 C 516.667969 550.222656 514.707031 551.402344 512.714844 552.527344 C 510.722656 553.648438 508.699219 554.710938 506.640625 555.714844 C 504.585938 556.71875 502.5 557.65625 500.390625 558.535156 C 498.277344 559.414062 496.140625 560.230469 493.980469 560.980469 C 491.820312 561.730469 489.636719 562.417969 487.4375 563.039062 C 485.234375 563.660156 483.015625 564.21875 480.78125 564.707031 C 478.546875 565.195312 476.300781 565.621094 474.039062 565.976562 C 471.78125 566.332031 469.511719 566.621094 467.234375 566.839844 C 464.957031 567.0625 462.675781 567.214844 460.390625 567.300781 C 458.105469 567.386719 455.820312 567.402344 453.53125 567.351562 C 451.246094 567.304688 448.960938 567.183594 446.679688 567 C 444.402344 566.8125 442.128906 566.558594 439.863281 566.234375 C 437.597656 565.914062 435.34375 565.527344 433.105469 565.070312 C 430.863281 564.617188 428.636719 564.09375 426.425781 563.503906 C 424.214844 562.917969 422.023438 562.265625 419.851562 561.546875 C 417.679688 560.828125 415.53125 560.046875 413.40625 559.199219 C 411.28125 558.355469 409.179688 557.445312 407.109375 556.476562 C 405.039062 555.503906 402.996094 554.472656 400.988281 553.378906 C 400.578125 553.15625 400.144531 553.023438 399.683594 552.972656 C 399.222656 552.925781 398.765625 552.964844 398.320312 553.097656 C 397.875 553.226562 397.472656 553.441406 397.113281 553.730469 C 396.75 554.023438 396.457031 554.371094 396.234375 554.78125 C 396.011719 555.1875 395.878906 555.625 395.828125 556.085938 C 395.777344 556.546875 395.820312 557 395.949219 557.445312 C 396.082031 557.890625 396.292969 558.296875 396.582031 558.65625 C 396.875 559.019531 397.222656 559.3125 397.632812 559.535156 C 399.667969 560.640625 401.738281 561.6875 403.835938 562.679688 C 405.933594 563.667969 408.058594 564.597656 410.210938 565.464844 C 412.363281 566.332031 414.535156 567.140625 416.734375 567.882812 C 418.929688 568.628906 421.144531 569.308594 423.382812 569.929688 C 425.617188 570.546875 427.867188 571.101562 430.136719 571.59375 C 432.402344 572.082031 434.683594 572.507812 436.972656 572.871094 C 439.265625 573.230469 441.566406 573.527344 443.875 573.757812 C 446.183594 573.984375 448.496094 574.152344 450.8125 574.25 C 453.128906 574.347656 455.449219 574.378906 457.769531 574.347656 C 460.089844 574.3125 462.40625 574.214844 464.71875 574.050781 C 467.03125 573.886719 469.339844 573.65625 471.640625 573.359375 C 473.941406 573.0625 476.230469 572.703125 478.511719 572.273438 C 480.792969 571.847656 483.058594 571.359375 485.308594 570.804688 C 487.5625 570.246094 489.796875 569.628906 492.015625 568.945312 C 494.230469 568.265625 496.425781 567.519531 498.601562 566.710938 C 500.777344 565.90625 502.925781 565.035156 505.050781 564.109375 C 507.179688 563.179688 509.273438 562.1875 511.34375 561.140625 C 513.414062 560.089844 515.453125 558.984375 517.457031 557.820312 C 519.464844 556.65625 521.433594 555.433594 523.371094 554.160156 C 525.308594 552.882812 527.207031 551.550781 529.070312 550.167969 C 530.929688 548.78125 532.75 547.34375 534.53125 545.859375 C 536.308594 544.371094 538.046875 542.832031 539.738281 541.246094 C 541.429688 539.65625 543.074219 538.023438 544.675781 536.34375 C 546.273438 534.664062 547.824219 532.9375 549.324219 531.171875 C 550.824219 529.402344 552.273438 527.59375 553.671875 525.742188 C 555.070312 523.890625 556.414062 522 557.707031 520.074219 C 558.996094 518.144531 560.234375 516.183594 561.410156 514.1875 C 562.589844 512.1875 563.710938 510.160156 564.777344 508.097656 C 565.839844 506.035156 566.84375 503.945312 567.789062 501.828125 C 568.734375 499.707031 569.617188 497.566406 570.441406 495.394531 C 571.261719 493.226562 572.023438 491.035156 572.722656 488.824219 C 573.421875 486.613281 574.054688 484.382812 574.628906 482.132812 C 575.199219 479.886719 575.707031 477.625 576.148438 475.347656 C 576.59375 473.070312 576.96875 470.78125 577.285156 468.484375 C 577.597656 466.183594 577.84375 463.878906 578.023438 461.566406 C 578.207031 459.253906 578.324219 456.9375 578.375 454.617188 C 578.421875 452.300781 578.40625 449.980469 578.324219 447.664062 C 578.242188 445.34375 578.097656 443.03125 577.882812 440.71875 C 577.667969 438.410156 577.390625 436.109375 577.046875 433.8125 C 576.703125 431.519531 576.292969 429.238281 575.820312 426.96875 C 575.34375 424.695312 574.808594 422.441406 574.203125 420.199219 C 573.601562 417.960938 572.9375 415.738281 572.207031 413.535156 C 571.480469 411.335938 570.6875 409.15625 569.835938 406.996094 C 568.984375 404.839844 568.070312 402.707031 567.097656 400.601562 C 566.125 398.496094 565.089844 396.421875 564 394.375 C 562.90625 392.328125 561.757812 390.3125 560.550781 388.332031 C 559.34375 386.351562 558.082031 384.40625 556.765625 382.496094 C 555.449219 380.585938 554.078125 378.714844 552.65625 376.882812 C 551.230469 375.050781 549.757812 373.261719 548.234375 371.515625 C 546.707031 369.765625 545.132812 368.0625 543.511719 366.40625 C 541.890625 364.746094 540.222656 363.136719 538.507812 361.574219 C 536.796875 360.007812 535.039062 358.496094 533.238281 357.03125 C 531.441406 355.566406 529.601562 354.15625 527.71875 352.796875 C 525.839844 351.4375 523.921875 350.132812 521.96875 348.882812 C 520.015625 347.632812 518.027344 346.441406 516.003906 345.304688 C 513.984375 344.164062 511.929688 343.085938 509.847656 342.066406 C 507.765625 341.046875 505.652344 340.085938 503.515625 339.1875 C 501.378906 338.285156 499.214844 337.445312 497.03125 336.667969 C 494.84375 335.890625 492.636719 335.175781 490.414062 334.527344 C 488.1875 333.875 485.941406 333.285156 483.683594 332.761719 C 481.421875 332.238281 479.152344 331.777344 476.863281 331.382812 C 474.578125 330.988281 472.285156 330.65625 469.980469 330.390625 C 467.675781 330.128906 465.363281 329.929688 463.046875 329.796875 C 460.734375 329.664062 458.414062 329.59375 456.09375 329.59375 Z M 456.09375 329.59375" stroke-linecap="round" /></g><g transform="matrix(1 0 0 1 -24.32 152.19)"  ><path style="stroke: none; stroke-width: 1; stroke-dasharray: none; stroke-linecap: butt; stroke-dashoffset: 0; stroke-linejoin: miter; stroke-miterlimit: 4; fill: rgb(11,184,39); fill-rule: nonzero; opacity: 1;"  transform=" translate(-455.68, -452.19)" d="M 456.09375 392.113281 C 455.632812 392.113281 455.1875 392.203125 454.757812 392.378906 C 454.328125 392.558594 453.949219 392.808594 453.621094 393.136719 C 453.296875 393.464844 453.042969 393.84375 452.863281 394.273438 C 452.6875 394.699219 452.597656 395.148438 452.597656 395.609375 L 452.597656 448.480469 L 399.308594 448.480469 C 398.847656 448.480469 398.398438 448.570312 397.972656 448.746094 C 397.542969 448.921875 397.164062 449.175781 396.835938 449.503906 C 396.507812 449.832031 396.257812 450.210938 396.078125 450.636719 C 395.902344 451.066406 395.8125 451.511719 395.8125 451.976562 C 395.8125 452.441406 395.902344 452.886719 396.078125 453.316406 C 396.257812 453.742188 396.507812 454.121094 396.835938 454.449219 C 397.164062 454.777344 397.542969 455.03125 397.972656 455.207031 C 398.398438 455.382812 398.847656 455.472656 399.308594 455.472656 L 452.597656 455.472656 L 452.597656 508.761719 C 452.597656 509.226562 452.6875 509.671875 452.863281 510.101562 C 453.042969 510.527344 453.292969 510.90625 453.621094 511.234375 C 453.949219 511.5625 454.328125 511.816406 454.757812 511.992188 C 455.1875 512.171875 455.632812 512.257812 456.09375 512.257812 C 456.558594 512.257812 457.003906 512.171875 457.433594 511.992188 C 457.863281 511.816406 458.238281 511.5625 458.566406 511.234375 C 458.894531 510.90625 459.148438 510.527344 459.324219 510.101562 C 459.503906 509.671875 459.59375 509.226562 459.59375 508.761719 L 459.59375 455.472656 L 512.042969 455.472656 C 512.503906 455.472656 512.953125 455.382812 513.378906 455.207031 C 513.808594 455.03125 514.1875 454.777344 514.515625 454.449219 C 514.84375 454.121094 515.09375 453.742188 515.273438 453.316406 C 515.449219 452.886719 515.539062 452.441406 515.539062 451.976562 C 515.539062 451.511719 515.449219 451.066406 515.273438 450.636719 C 515.09375 450.210938 514.84375 449.832031 514.515625 449.503906 C 514.1875 449.175781 513.808594 448.921875 513.378906 448.746094 C 512.953125 448.570312 512.503906 448.480469 512.042969 448.480469 L 459.59375 448.480469 L 459.59375 396.03125 C 459.621094 395.785156 459.625 395.535156 459.601562 395.289062 C 459.578125 395.042969 459.53125 394.800781 459.457031 394.5625 C 459.382812 394.324219 459.285156 394.097656 459.160156 393.882812 C 459.039062 393.667969 458.894531 393.464844 458.730469 393.28125 C 458.5625 393.097656 458.378906 392.929688 458.179688 392.785156 C 457.980469 392.636719 457.765625 392.515625 457.539062 392.414062 C 457.3125 392.3125 457.074219 392.238281 456.832031 392.1875 C 456.589844 392.136719 456.34375 392.113281 456.09375 392.113281 Z M 456.09375 392.113281" stroke-linecap="round" /></g><g transform="matrix(1 0 0 1 260.94 -136.99)" clip-path="url(#CLIPPATH_2140)"  ><clipPath id="CLIPPATH_2140" ><path transform="matrix(1 0 0 1 -0.02 -0.02) translate(-740.93, -162.99)" id="25" d="M 620.925781 42.992188 L 860.925781 42.992188 L 860.925781 282.992188 L 620.925781 282.992188 Z M 620.925781 42.992188" stroke-linecap="round" /></clipPath><path style="stroke: none; stroke-width: 1; stroke-dasharray: none; stroke-linecap: butt; stroke-dashoffset: 0; stroke-linejoin: miter; stroke-miterlimit: 4; fill: rgb(51,171,51); fill-rule: nonzero; opacity: 1;"  transform=" translate(-740.94, -163.01)" d="M 860.957031 163.007812 C 860.957031 229.289062 807.226562 283.023438 740.945312 283.023438 C 674.660156 283.023438 620.925781 229.289062 620.925781 163.007812 C 620.925781 96.722656 674.660156 42.992188 740.945312 42.992188 C 807.226562 42.992188 860.957031 96.722656 860.957031 163.007812" stroke-linecap="round" /></g><g transform="matrix(1 0 0 1 260.95 -136.99)"  ><path style="stroke: none; stroke-width: 1; stroke-dasharray: none; stroke-linecap: butt; stroke-dashoffset: 0; stroke-linejoin: miter; stroke-miterlimit: 4; fill: rgb(255,255,255); fill-rule: nonzero; opacity: 1;"  transform=" translate(-740.95, -163.01)" d="M 740.945312 262.726562 C 685.871094 262.726562 641.226562 218.082031 641.226562 163.007812 C 641.226562 107.9375 685.871094 63.289062 740.945312 63.289062 C 796.015625 63.289062 840.660156 107.9375 840.660156 163.007812 C 840.660156 218.082031 796.015625 262.726562 740.945312 262.726562 Z M 740.945312 56.519531 C 682.132812 56.519531 634.457031 104.195312 634.457031 163.007812 C 634.457031 221.820312 682.132812 269.496094 740.945312 269.496094 C 799.753906 269.496094 847.433594 221.820312 847.433594 163.007812 C 847.433594 104.195312 799.753906 56.519531 740.945312 56.519531" stroke-linecap="round" /></g><g transform="matrix(1 0 0 1 260.83 -136.88)"  ><path style="stroke: none; stroke-width: 1; stroke-dasharray: none; stroke-linecap: butt; stroke-dashoffset: 0; stroke-linejoin: miter; stroke-miterlimit: 4; fill: rgb(255,255,255); fill-rule: nonzero; opacity: 1;"  transform=" translate(-740.83, -163.12)" d="M 816.1875 127.445312 L 795.585938 106.839844 L 724.292969 178.132812 L 686.085938 139.925781 L 665.480469 160.523438 L 724.347656 219.394531 L 744.949219 198.789062 L 744.894531 198.738281 L 816.1875 127.445312" stroke-linecap="round" /></g><g transform="matrix(1 0 0 1 -274.18 -151.4)" clip-path="url(#CLIPPATH_2141)"  ><clipPath id="CLIPPATH_2141" ><path transform="matrix(1 0 0 1 0.08 -0.1) translate(-205.9, -148.5)" id="fde6160546" d="M 136 86 L 275.808594 86 L 275.808594 211 L 136 211 Z M 136 86" stroke-linecap="round" /></clipPath><path style="stroke: none; stroke-width: 1; stroke-dasharray: none; stroke-linecap: butt; stroke-dashoffset: 0; stroke-linejoin: miter; stroke-miterlimit: 4; fill: rgb(255,255,255); fill-rule: nonzero; opacity: 1;"  transform=" translate(-205.82, -148.6)" d="M 169.3125 210.632812 L 165.210938 194.902344 C 165.144531 194.65625 158.046875 168.671875 136.144531 152.867188 L 144.210938 141.691406 C 159.453125 152.691406 168.507812 167.4375 173.457031 178.019531 C 189.066406 155.160156 206.789062 136.574219 219.71875 124.363281 C 236.640625 108.390625 254.984375 94.261719 268.800781 86.570312 L 275.503906 98.609375 C 253.277344 110.988281 207.089844 148.578125 177.765625 196.746094 L 169.3125 210.632812" stroke-linecap="round" /></g><g transform="matrix(1 0 0 1 -306.38 -140.12)" clip-path="url(#CLIPPATH_2142)"  ><clipPath id="CLIPPATH_2142" ><path transform="matrix(1 0 0 1 0.04 0.12) translate(-173.65, -160)" id="3" d="M 94.308594 80.503906 L 253 80.503906 L 253 239.503906 L 94.308594 239.503906 Z M 94.308594 80.503906" stroke-linecap="round" /></clipPath><path style="stroke: none; stroke-width: 1; stroke-dasharray: none; stroke-linecap: butt; stroke-dashoffset: 0; stroke-linejoin: miter; stroke-miterlimit: 4; fill: rgb(255,255,255); fill-rule: nonzero; opacity: 1;"  transform=" translate(-173.62, -159.88)" d="M 228.488281 124.097656 C 235.222656 134.390625 239.148438 146.6875 239.148438 159.878906 C 239.148438 196.011719 209.753906 225.410156 173.617188 225.410156 C 137.484375 225.410156 108.089844 196.011719 108.089844 159.878906 C 108.089844 123.75 137.484375 94.351562 173.617188 94.351562 C 191.609375 94.351562 207.925781 101.636719 219.78125 113.417969 C 223.246094 110.285156 226.746094 107.242188 230.230469 104.34375 C 230.050781 104.164062 229.878906 103.980469 229.699219 103.800781 C 214.71875 88.820312 194.800781 80.570312 173.617188 80.570312 C 152.433594 80.570312 132.519531 88.820312 117.539062 103.800781 C 102.558594 118.78125 94.308594 138.695312 94.308594 159.878906 C 94.308594 181.066406 102.558594 200.980469 117.539062 215.960938 C 132.519531 230.941406 152.433594 239.191406 173.617188 239.191406 C 194.800781 239.191406 214.71875 230.941406 229.699219 215.960938 C 244.679688 200.980469 252.929688 181.066406 252.929688 159.878906 C 252.929688 143.601562 248.050781 128.074219 238.996094 114.953125 C 235.578125 117.808594 232.058594 120.855469 228.488281 124.097656" stroke-linecap="round" /></g><g transform="matrix(1 0 0 1 -271.14 132.38)"  ><path style="stroke: none; stroke-width: 1; stroke-dasharray: none; stroke-linecap: butt; stroke-dashoffset: 0; stroke-linejoin: miter; stroke-miterlimit: 4; fill: rgb(11,184,39); fill-rule: nonzero; opacity: 1;"  transform=" translate(-208.86, -432.38)" d="M 155.875 522.398438 L 149.921875 499.574219 C 149.828125 499.214844 139.527344 461.507812 107.746094 438.570312 L 119.449219 422.351562 C 141.570312 438.316406 154.707031 459.714844 161.894531 475.074219 C 184.542969 441.902344 210.261719 414.925781 229.027344 397.210938 C 253.578125 374.027344 280.203125 353.527344 300.25 342.367188 L 309.980469 359.835938 C 277.726562 377.796875 210.695312 432.347656 168.140625 502.25 L 155.875 522.398438" stroke-linecap="round" /></g><g transform="matrix(1 0 0 1 -317.87 148.75)" clip-path="url(#CLIPPATH_2143)"  ><clipPath id="CLIPPATH_2143" ><path transform="matrix(1 0 0 1 0.39 -0.07) translate(-162.52, -448.68)" id="e211e3d03e" d="M 47.035156 333.558594 L 278 333.558594 L 278 563.808594 L 47.035156 563.808594 Z M 47.035156 333.558594" stroke-linecap="round" /></clipPath><path style="stroke: none; stroke-width: 1; stroke-dasharray: none; stroke-linecap: butt; stroke-dashoffset: 0; stroke-linejoin: miter; stroke-miterlimit: 4; fill: rgb(11,184,39); fill-rule: nonzero; opacity: 1;"  transform=" translate(-162.13, -448.75)" d="M 241.753906 396.824219 C 251.523438 411.761719 257.21875 429.601562 257.21875 448.75 C 257.21875 501.183594 214.5625 543.84375 162.125 543.84375 C 109.691406 543.84375 67.03125 501.183594 67.03125 448.75 C 67.03125 396.316406 109.691406 353.65625 162.125 353.65625 C 188.230469 353.65625 211.910156 364.230469 229.113281 381.324219 C 234.144531 376.777344 239.222656 372.363281 244.277344 368.15625 C 244.019531 367.894531 243.769531 367.625 243.507812 367.367188 C 221.769531 345.628906 192.867188 333.660156 162.125 333.660156 C 131.382812 333.660156 102.480469 345.628906 80.742188 367.367188 C 59.003906 389.105469 47.035156 418.007812 47.035156 448.75 C 47.035156 479.492188 59.003906 508.394531 80.742188 530.132812 C 102.480469 551.871094 131.382812 563.84375 162.125 563.84375 C 192.867188 563.84375 221.769531 551.871094 243.507812 530.132812 C 265.246094 508.394531 277.21875 479.492188 277.21875 448.75 C 277.21875 425.125 270.140625 402.589844 257 383.554688 C 252.035156 387.695312 246.933594 392.121094 241.753906 396.824219" stroke-linecap="round" /></g></g></g></svg>